<?xml version="1.0" encoding="UTF-8" standalone="no"?>
<svg
   version="1.1"
   x="0px"
   y="0px"
   viewBox="0 0 45.6 65.75"
   style="enable-background:new 0 0 45.6 52.6;"
   xml:space="preserve"
   id="svg6"
   sodipodi:docname="avatar.svg"
   inkscape:version="1.4.2 (ebf0e940, 2025-05-08)"
   xmlns:inkscape="http://www.inkscape.org/namespaces/inkscape"
   xmlns:sodipodi="http://sodipodi.sourceforge.net/DTD/sodipodi-0.dtd"
   xmlns="http://www.w3.org/2000/svg"
   xmlns:svg="http://www.w3.org/2000/svg"><defs
     id="defs6" /><sodipodi:namedview
     id="namedview6"
     pagecolor="#ffffff"
     bordercolor="#000000"
     borderopacity="0.25"
     inkscape:showpageshadow="2"
     inkscape:pageopacity="0.0"
     inkscape:pagecheckerboard="0"
     inkscape:deskcolor="#d1d1d1"
     inkscape:zoom="4.1845637"
     inkscape:cx="25.092222"
     inkscape:cy="55.680835"
     inkscape:window-width="1280"
     inkscape:window-height="747"
     inkscape:window-x="0"
     inkscape:window-y="25"
     inkscape:window-maximized="1"
     inkscape:current-layer="svg6" /><g
     id="g6"
     transform="translate(0.00270341,6.525)"
     style="fill:#333333"><path
       d="m 45.6,27.2 c 0,-1.9 -1.4,-3.4 -3.2,-3.7 0,-2.7 -0.5,-11.7 -9,-16.7 C 33,5.8 31.6,3 29.3,3 28.5,3 27.7,3.2 27.1,3.5 26.5,1.9 25.3,0 22.8,0 20.3,0 19.1,1.9 18.6,3.6 17.9,3.2 17.1,3 16.3,3 14,3 12.6,5.8 12.2,6.7 3.7,11.6 3.1,20.7 3.2,23.4 1.4,23.7 0,25.3 0,27.2 c -0.1,1.7 1.2,3.1 2.8,3.2 0.1,0 0.1,0 0.2,0 h 0.5 c -2.5,2.2 -2.8,5.9 -0.7,8.5 1,1.2 2.4,1.9 3.9,2.1 v 1 c 0,0.1 0,0.1 0,0.2 0,0.1 2.9,10.5 16.1,10.5 13.2,0 16.1,-10.4 16.1,-10.5 0,-0.1 0,-0.1 0,-0.2 v -1 c 3.3,-0.4 5.7,-3.3 5.3,-6.6 -0.2,-1.5 -0.9,-2.9 -2.1,-3.9 h 0.5 c 1.7,0 3,-1.4 3,-3 0,-0.2 0,-0.3 0,-0.3 z M 6.7,37 C 5.5,36.6 4.9,35.3 5.3,34.2 5.5,33.5 6,33 6.7,32.8 Z M 2.9,34.9 c 0,-2.2 1.6,-4.1 3.8,-4.5 v 1.3 C 5,32.1 3.9,33.8 4.3,35.6 4.6,36.8 5.5,37.8 6.7,38 v 1.3 C 4.5,39 2.9,37.1 2.9,34.9 Z m 34.5,6.9 C 37.1,42.7 34.2,51.1 22.8,51.1 11.4,51.1 8.5,42.8 8.2,41.8 V 30.4 h 29.2 z m 1.5,-9 c 1.2,0.4 1.8,1.7 1.4,2.8 -0.2,0.7 -0.7,1.2 -1.4,1.4 z m 3.8,2.1 c 0,2.2 -1.6,4.1 -3.8,4.5 V 38.1 C 40.6,37.7 41.7,36 41.3,34.2 41,33 40.1,32 38.9,31.8 v -1.3 c 2.2,0.3 3.8,2.2 3.8,4.4 z m -4.5,-6 H 3 c -0.8,0 -1.5,-0.6 -1.5,-1.4 0,-0.1 0,-0.1 0,-0.2 0,-1.3 1.1,-2.3 2.4,-2.3 0,0 0.1,0 0.1,0 0.2,0 0.4,-0.1 0.6,-0.2 0.1,-0.2 0.2,-0.4 0.2,-0.6 0,-0.4 -1,-10.8 8.5,-16.1 0.2,-0.1 0.3,-0.2 0.3,-0.4 0.3,-0.8 1.5,-3 2.8,-3 0.7,-0.1 1.4,0.2 1.9,0.7 V 8 c 0,0.4 0.3,0.8 0.8,0.8 0.5,0 0.8,-0.3 0.8,-0.8 V 5.2 c 0,-0.3 0.5,-3.6 3,-3.6 2.5,0 3,3.3 3,3.6 V 8 c 0,0.4 0.3,0.8 0.8,0.8 0.5,0 0.8,-0.3 0.8,-0.8 V 5.3 c 0.5,-0.5 1.2,-0.8 1.9,-0.7 1.3,0 2.5,2.2 2.8,3 0.1,0.2 0.2,0.3 0.3,0.4 9.4,5.3 8.5,15.7 8.5,16.1 0,0.2 0,0.4 0.2,0.6 0.1,0.2 0.3,0.2 0.6,0.2 1.3,-0.1 2.4,0.9 2.5,2.2 0,0 0,0.1 0,0.1 0.1,0.8 -0.5,1.6 -1.3,1.7 -0.1,0 -0.1,0 -0.2,0 z"
       id="path1"
       style="fill:#333333" /><path
       d="M 39.2,19.2 H 29.1 c -0.3,-3.5 -3.3,-6.1 -6.8,-5.8 -3.1,0.2 -5.6,2.7 -5.8,5.8 h -10 c -0.4,0 -0.8,0.3 -0.8,0.8 0,0.5 0.3,0.8 0.8,0.8 h 10 c 0.5,3.5 3.7,5.8 7.2,5.3 2.7,-0.4 4.9,-2.6 5.3,-5.3 h 10.1 c 0.4,0 0.8,-0.3 0.8,-0.8 0,-0.5 -0.3,-0.8 -0.7,-0.8 z m -19.5,1.5 c -0.4,0 -0.8,-0.3 -0.8,-0.8 0,-0.5 0.3,-0.8 0.8,-0.8 h 2.1 V 17 c 0,-0.4 0.3,-0.8 0.8,-0.8 0.5,0 0.8,0.3 0.8,0.8 v 2.1 h 2.1 c 0.4,0 0.8,0.3 0.8,0.8 0,0.5 -0.3,0.8 -0.8,0.8 h -2.1 v 2.1 c 0,0.4 -0.3,0.8 -0.8,0.8 -0.5,0 -0.8,-0.3 -0.8,-0.8 v -2.1 z"
       id="path2"
       style="fill:#333333" /><path
       d="m 20,36 c 0.5,0 1,-0.9 1,-2.1 0,-1.2 -0.5,-2.1 -1,-2.1 -0.5,0 -1,0.9 -1,2.1 0,1.2 0.5,2.1 1,2.1 z"
       id="path3"
       style="fill:#333333" /><path
       d="m 25.6,31.9 c -0.5,0 -1,0.9 -1,2.1 0,1.2 0.5,2.1 1,2.1 0.5,0 1,-0.9 1,-2.1 0,-1.2 -0.5,-2.1 -1,-2.1 z"
       id="path4"
       style="fill:#333333" /><path
       d="m 25,38.6 c -2,2 -4.3,0.2 -4.5,0 -0.3,-0.3 -0.8,-0.2 -1.1,0.1 0,0 0,0 0,0 -0.3,0.3 -0.2,0.8 0.1,1.1 1,0.8 2.2,1.3 3.5,1.3 1.2,0 2.3,-0.5 3.1,-1.4 0.3,-0.3 0.3,-0.8 0,-1.1 -0.3,-0.3 -0.8,-0.2 -1.1,0 z"
       id="path5"
       style="fill:#333333" /></g></svg>
