<?xml version="1.0" encoding="UTF-8" standalone="no"?>
<svg
   width="1000"
   height="1000"
   preserveAspectRatio="xMidYMid"
   viewBox="0 0 750 750"
   version="1.1"
   id="svg3"
   sodipodi:docname="logo.optimised.svg"
   inkscape:export-filename="logo-darkmode.png"
   inkscape:export-xdpi="96"
   inkscape:export-ydpi="96"
   inkscape:version="1.4.2 (ebf0e940, 2025-05-08)"
   xmlns:inkscape="http://www.inkscape.org/namespaces/inkscape"
   xmlns:sodipodi="http://sodipodi.sourceforge.net/DTD/sodipodi-0.dtd"
   xmlns="http://www.w3.org/2000/svg"
   xmlns:svg="http://www.w3.org/2000/svg">
  <sodipodi:namedview
     id="namedview3"
     pagecolor="#ffffff"
     bordercolor="#000000"
     borderopacity="0.25"
     inkscape:showpageshadow="2"
     inkscape:pageopacity="0.0"
     inkscape:pagecheckerboard="0"
     inkscape:deskcolor="#d1d1d1"
     inkscape:zoom="0.2701184"
     inkscape:cx="1021.7742"
     inkscape:cy="723.75671"
     inkscape:window-width="1280"
     inkscape:window-height="688"
     inkscape:window-x="0"
     inkscape:window-y="25"
     inkscape:window-maximized="1"
     inkscape:current-layer="svg3" />
  <defs
     id="defs2">
    <clipPath
       id="a">
      <path
         d="M0 0h830v164H0z"
         id="path1" />
    </clipPath>
    <clipPath
       id="b">
      <path
         d="M0 0h375v84H0z"
         id="path2" />
    </clipPath>
  </defs>
  <path
     d="M332.562 338.7c-.351-.46-2.17-4.443-4.043-8.853-1.872-4.41-7.302-16.587-12.068-27.06-10.085-22.162-13.236-29.378-12.951-29.663.112-.112 6.133 4.027 13.38 9.199 17.787 12.695 26.853 19.013 27.815 19.382 1.053.404 9.664-16.965 28.332-57.15l2.571-5.536 3.422 7.185c6.065 12.737 21.706 45.978 23.954 50.908 1.2 2.632 2.453 4.785 2.785 4.785.787 0 14.975-9.612 29.559-20.025 6.352-4.535 11.645-8.15 11.762-8.032.117.117-2.821 6.998-6.53 15.29a4985 4985 0 0 0-10.22 22.997 7657 7657 0 0 1-7.716 17.489l-4.238 9.57-12.152-.33c-17.015-.463-46.884-.364-61.067.202-9.315.371-12.097.292-12.595-.358m11.351-6.108c11.203-1.351 51.919-1.36 62.722-.012 9.597 1.197 8.584 1.202 9.828-.042 1.403-1.403 1.333-4.07-.118-4.479-8.004-2.257-58.335-2.891-73.658-.928-4.668.599-8.638 1.24-8.824 1.425-.633.633.538 5.02 1.336 5.006.437-.008 4.359-.444 8.714-.97m7.92-10.974c3.993-.409 7.664-.96 8.158-1.225.606-.324-6.276-5.857-21.119-16.98-20.582-15.424-24.227-18.015-25.339-18.015-1.244 0 4.74 8.243 19.045 26.234 7.132 8.97 8.81 10.724 10.261 10.726.954 0 5.001-.332 8.994-.74m61.793-3.387c4.35-5.223 22.534-29.385 23.561-31.305 1.814-3.39.65-2.96-6.23 2.297a6726 6726 0 0 1-18.407 13.974c-15.444 11.688-21.449 16.505-21.449 17.206 0 .669 8.095 1.645 15.32 1.847l3.77.106zm-33.554.207c10.08-7.061 16.338-12.14 16.691-13.545.403-1.605-4.651-13.227-15.323-35.236-4.55-9.382-5.718-11.314-6.467-10.692-.862.715-16.454 34.485-19.494 42.22l-1.405 3.576 1.338 1.338c2.828 2.829 18.912 14.87 19.905 14.903.575.019 2.715-1.135 4.755-2.564m107.08 192.85-7.55-10.616q-1.27.141-2.644.14h-8.873v10.476h-3.488v-33.041h12.36q6.327 0 9.913 3.022 3.585 3.023 3.586 8.31-.001 3.867-1.96 6.532-1.95 2.666-5.59 3.846l8.07 11.331zm-10.28-13.455q4.904.001 7.496-2.166 2.6-2.177 2.6-6.089 0-4.018-2.6-6.164-2.59-2.145-7.497-2.145h-8.786v16.564zm-39.368 10.433v3.022h-23.357v-33.041H436.8v3.022h-19.164v11.754h17.084v2.969h-17.084v12.274zm-52.987-30.02v33.042h-2.882l-21.244-26.812v26.812h-3.489v-33.041h2.871l21.288 26.812v-26.812Zm-60.746 0h3.488v33.042h-3.488zm-29.636 0v33.042h-3.348v-26.433l-12.978 22.23h-1.658l-12.978-22.089v26.292h-3.348v-33.041h2.871l14.354 24.494 14.203-24.494zm294.55-39.74q-.325 0-.325-.325v-.975q0-.325.401-.325h.932q2.23 0 3.044-.4 3-1.464 3-8.028v-42.131q-.001-2.718-5.275-3.25-1.171-.12-1.636-.12-.466 0-.466-.324v-.975q0-.325.325-.325h14.842l38.48 42.542q.203.197.282.303.073.098.26.098.183 0 .184-.368v-27.94q-.002-8.06-1.343-10.53-1.333-2.479-5.385-2.48h-2.069q-.325 0-.325-.325v-.975q0-.325.325-.325h21.082q.325 0 .325.325v.975q0 .325-1.203.325-1.194.001-3.932 1.375-2.73 1.378-2.73 3.413v49.584q0 .901-.25 1.278-.239.39-1.148.39-.909-.001-1.365-.368-.446-.357-1.05-1.05l-41.806-46.357q-.402-.399-.726-.4-.207.001-.206.4v40.474q-.001 3.695 5.84 4.864 1.624.325 2.47.325.853 0 .855.325v.975q0 .325-.325.325zm-13.534-25.144q.455.001.455.628 0 .63-.455.878-1.097.445-2.254.769-1.148.324-2.123.845-2.234 1.226-2.232 3.943v13.173q0 .89-4.279 2.395-4.282 1.495-6.955 2.188-12.525 3.087-22.382-.65-11.31-4.332-16.011-15.524-2.363-5.599-2.362-11.137 0-5.534 1.105-9.306 3.315-11.514 13.943-17.723 6.932-4.051 14.57-4.052 7.647.001 16.25 3.077 1.581.576 1.788.574h.487l1.615-.412h1.018q.443 0 .444.455v13.499q-.001.77-.888.769h-.163q-.77-.074-1.061-2.07l-.12-.606q-4.053-12.696-17.105-12.697-10.466.001-16.695 7.909-6.218 7.91-6.218 18.817-.001 10.912 6.262 19.284 6.26 8.375 17.214 8.374 5.632.001 9.284-1.744 1.417-.691 2.188-1.745V422.17q0-3.779-2.145-5.536-2.146-1.764-7.908-1.765-.445 0-.444-.748-.002-.757.444-.758zm-89.686-25.545q0-4.864-5.59-4.864-.9 0-.899-.325v-.975q0-.325.325-.325h20.323q.325 0 .325.325v.975q0 .325-1.787.325-1.789 0-3.294 1.137-1.494 1.129-1.495 4.658v43.269q0 4.865 5.634 4.864.855 0 .856.325v.975q0 .325-.325.325h-20.313q-.325 0-.325-.325v-.975q-.002-.325 1.777-.325 1.788.001 3.282-1.127 1.505-1.136 1.506-4.669zm-69.488 50.364v-1.138q0-.325.325-.325h.889a63 63 0 0 1 3.488-.14q1.788-.021 3.25-.423 3.325-.974 3.326-4.864v-42.748q0-4.006-4.745-5.103a50 50 0 0 0-2.72-.487h-.855q-.315 0-.314-.325v-.975q-.001-.325.314-.325h38.567q.735.001 1.05.27.325.262.412 1.149l.726 11.765q0 .401-.607.4-.608.001-.888-.368-.251-.398-.64-2.957-.381-2.556-1.397-4.258-1.007-1.698-3.564-2.145h-16.91q-.52 0-.52.52v20.974q-.001.401.4.4h14.03q5.436.001 5.438-6.326 0-.325.325-.325h.975q.325 0 .325.325v17.355q0 .325-.325.325h-.975q-.325 0-.325-.325-.002-5.999-3.489-6.934a8.8 8.8 0 0 0-2.069-.238h-13.91q-.401.002-.4.4v19.75q0 3.047 2.794 3.445.812.12 1.701.12h13.51q4.168 0 6.488-3.684 1.657-2.64 2.026-6.045.117-1.137 1.214-1.138c.325 0 .487.18.487.531l-1.343 13.629q-.24.563-.564.563h-45.175q-.324 0-.325-.325m-64.007.325q-.325 0-.325-.813v-.487q0-.325.325-.325.237 0 .759-.076a45 45 0 0 1 1.094-.162q.574-.087 1.062-.185.487-.096.693-.14 4.137-.931 4.138-4.702v-42.824q-.001-3.487-2.806-4.951a7.45 7.45 0 0 0-3.564-.888h-1.538q-.325 0-.325-.325v-.975q0-.325.487-.325l22.263-.607h4.095q7.171.49 12.014 5.21 4.852 4.725 4.853 11.636-.002 6.914-5.763 10.768a27 27 0 0 1-3.846 2.113l12.285 20.074q3.205 5.266 8.59 7.42.456.122.456.564-.002 1.017-1.343 1.018-9.123.001-14.517-6.944a43 43 0 0 1-2.35-3.445l-10.51-16.456-9.64-.455h-.326q-.608.001-.607.574v18.688q0 2.234 1.257 3.326 1.254 1.096 4.333 1.506a47 47 0 0 1 1.983.346q1.18.219 1.603.217.432 0 .434.325v.975q0 .325-.325.325zm18.937-55.65q-.488.01-1.04.032-.544.024-1.398.043-.845.023-.845.672v24.57l.076 1.213q.119.857.77.9l4.138.237q11.396 0 13.747-8.103.769-2.555.77-5.84 0-6.41-3.998-10.096-3.988-3.693-10.194-3.694-.576 0-1.062.022-.479.024-.964.043m-80.321 55.325v-1.138q0-.325.325-.325h.888a63 63 0 0 1 3.489-.14q1.787-.021 3.25-.423 3.324-.974 3.325-4.864v-42.748q0-4.006-4.745-5.103a50 50 0 0 0-2.719-.487h-.856q-.315 0-.314-.325v-.975q-.001-.325.314-.325h38.567q.735.001 1.05.27c.218.174.353.558.413 1.149l.725 11.765q0 .401-.606.4-.609.001-.889-.368-.25-.398-.639-2.957-.381-2.556-1.397-4.258-1.008-1.698-3.564-2.145h-16.911q-.52 0-.52.52v20.974q0 .401.4.4h14.03q5.437.001 5.438-6.326 0-.325.325-.325h.975q.325 0 .325.325v17.355q0 .325-.325.325h-.975q-.325 0-.325-.325-.001-5.999-3.488-6.934a8.8 8.8 0 0 0-2.07-.238h-13.91q-.401.002-.4.4v19.75q0 3.047 2.795 3.445.811.12 1.7.12h13.51q4.169 0 6.489-3.684 1.657-2.64 2.026-6.045.117-1.137 1.213-1.138c.325 0 .488.18.488.531l-1.344 13.629q-.239.563-.563.563H290.91q-.325 0-.325-.325m-8.778-55.553q0 .325-.325.325h-1.505c-3.432.671-5.959 3.483-7.584 8.428q-.65 1.952-1.332 3.78l-15.936 43.02q-.37 1.017-.9 1.213-.52.205-1.45.206h-1.907q-.976-.002-1.257-.888l-21.374-51.784q-1.3-3.204-6.403-3.932a4 4 0 0 0-.476-.043q-.175 0-.174-.325v-.975q0-.325.325-.325h23.92q.325 0 .325.325v.975q0 .325-.325.325h-.606a66 66 0 0 1-2.351.325q-5.192.65-5.19 4.138 0 1.096.564 2.35l15.372 37.387q.399.813.845-.044l14.116-38.198q.281-.812.282-1.928-.001-1.113-.932-2.145-.934-1.04-1.885-1.192a53 53 0 0 0-1.506-.238q-.544-.085-1.635-.271-1.098-.184-1.463-.184-.357 0-.357-.325v-.975q0-.325.325-.325h20.474q.325 0 .325.325zm-88.909 52.39q-3.533 2.146-7.713 3.369-4.173 1.212-7.41 1.213-6.653 0-12.697-2.145-8.279-3-13.303-8.883-6.403-7.506-6.403-19.024 0-8.308 4.258-15.134 4.257-6.834 11.776-10.811 7.527-3.975 16.185-3.976 8.653 0 15.502 3.856 6.857 3.848 10.996 10.585 4.137 6.728 4.138 14.57 0 7.844-4.095 14.929-4.095 7.077-11.234 11.45m-39.01-26.759q-.002 6.728 2.978 13.358t8.537 10.811q5.557 4.172 12.848 4.171 10.388.002 16.185-7.951 5.233-7.171 5.233-18.32-.002-11.156-6.413-19.229-3.122-3.932-7.649-6.305-4.518-2.372-9.121-2.372-4.595.001-7.54 1.018a19.7 19.7 0 0 0-5.33 2.773 20.4 20.4 0 0 0-4.225 4.204 25.4 25.4 0 0 0-3.034 5.265q-2.47 5.841-2.47 12.577m-28.66-26.444q.41.002.411.888l1.051 8.645q.163.813.163 1.04-.002.219-.629.217-.629 0-.79-.162-.163-.161-.325-.542-.163-.39-.39-.878-.22-.487-.466-.975-.847-1.86-2.676-3.694-4.454-4.29-10.053-4.29-3.373.002-6.37 2.189-3.002 2.19-3.001 5.167-.002 2.981 1.116 5.168 1.114 2.19 2.935 4.062a32.4 32.4 0 0 0 4.182 3.564 905 905 0 0 0 4.788 3.445q6.443 4.51 9.165 7.703 4.258 4.952 4.626 11.115 0 6.89-5.297 11.006-5.289 4.119-12.307 4.117-4.496 0-7.16-.91-2.658-.91-3.673-1.31-1.01-.411-1.474-.412-.467.001-.585.043l-1.993.4q-.52 0-.65-.855-1.17-10.051-1.17-10.682 0-.626.098-.845.105-.227.552-.227 1.135 0 2.07 3.239 4.256 9.123 14.148 9.121 4.538.001 7.756-2.751c2.15-1.842 3.229-4.236 3.229-7.183q-.002-7.052-8.429-13.13-2.396-1.71-6.9-4.745-4.499-3.042-7.172-6.088-4.184-4.7-4.182-10.476-.001-5.785 4.604-9.468 4.603-3.694 10.563-3.694 3.087 0 6.792 1.061 3.715 1.052 5.179 1.409zm207.063-42.43c-.333-.348-.606-.789-.606-.98 0-.811-13.42-31.237-14.996-33.997-.243-.427-1.36-2.941-2.482-5.587-1.121-2.646-3.68-8.308-5.685-12.583-4.558-9.716-6.15-13.848-5.331-13.838.331.005 3.69 2.244 7.464 4.979 14.613 10.59 18.887 13.605 29.276 20.657 1.734 1.177 3.522 2.47 3.974 2.872.451.403 1.05.655 1.332.56.494-.165 7.307-14.077 14.002-28.59.801-1.736 3.456-7.309 5.9-12.383 2.443-5.074 5.657-11.96 7.143-15.303s2.854-6.247 3.04-6.456c.37-.412 3.049 4.461 5.016 9.124.677 1.603 2.558 5.706 4.18 9.118 1.623 3.411 2.95 6.275 2.95 6.363s2.264 4.84 5.03 10.557c6.536 13.509 8.927 18.613 10.06 21.473 1.41 3.564 2.826 6.17 3.351 6.17.85 0 22.141-14.762 36.13-25.05 2.401-1.765 4.769-3.429 5.26-3.696.785-.426.852-.346.54.649-.195.624-.87 2.268-1.501 3.654s-1.146 2.618-1.146 2.738-.955 2.266-2.122 4.768c-1.168 2.502-3.814 8.374-5.882 13.05s-4.495 10.091-5.396 12.034-1.637 3.675-1.637 3.848-.633 1.645-1.406 3.269a175 175 0 0 0-2.137 4.653c-.402.935-1.843 4.17-3.202 7.187-1.36 3.017-2.471 5.62-2.471 5.782 0 .164-.55 1.462-1.223 2.885l-1.223 2.589-2.779-.199c-13.777-.983-38.322-1.342-55.945-.82-10.565.314-20.934.698-23.04.853-2.82.209-3.991.116-4.438-.35m17.658-7.8c4.762-.432 13.94-.638 27.09-.607 17.27.041 20.974.185 28.135 1.09 11.08 1.401 10.745 1.422 11.635-.71 1.198-2.872 1.097-2.985-3.025-3.339-2.068-.178-6.488-.64-9.823-1.027-8.28-.96-34.02-1.393-45.355-.762s-24.145 2.02-24.567 2.663c-.173.263-.1 1.157.163 1.987.264.83.551 1.754.64 2.055.118.4 1.196.38 4.033-.075 2.13-.341 7.113-.915 11.074-1.275m7.566-10.872c1.534-.177 2.777-.464 2.762-.638-.015-.175-1.562-1.41-3.437-2.746s-4.536-3.312-5.915-4.391c-1.378-1.079-4.033-3.04-5.9-4.356-4.033-2.842-16.093-11.944-20.793-15.69-5.021-4.003-10.22-7.48-10.395-6.954-.086.258.81 1.743 1.992 3.3a1087 1087 0 0 1 6.276 8.416c2.27 3.073 4.54 6.024 5.044 6.558 1.06 1.127 9.32 11.491 12 15.06 1.004 1.336 2.147 2.545 2.54 2.687.64.23 8.136-.36 15.826-1.246m53.689-.105c.837-1.002 1.68-2.04 1.872-2.307.192-.268 1.387-1.715 2.656-3.217s6.34-8.17 11.268-14.817 9.291-12.513 9.696-13.035c.699-.902.998-2.209.505-2.209-.127 0-1.988 1.421-4.136 3.158s-4.1 3.158-4.337 3.158a.69.69 0 0 0-.594.415c-.09.229-3 2.517-6.468 5.086s-7.485 5.606-8.927 6.75-3.406 2.613-4.366 3.265c-.96.651-3.96 2.947-6.668 5.1-2.709 2.154-6.147 4.844-7.64 5.979-1.494 1.134-2.716 2.282-2.716 2.55 0 .269 1.255.509 2.79.534 1.533.025 5.19.32 8.124.657 2.935.336 5.804.643 6.377.683.664.046 1.593-.588 2.564-1.75m-29.721-3.652c2.977-2.2 7.5-5.53 10.052-7.4 4.443-3.258 5.507-4.496 5.2-6.055-.16-.814-10.815-23.835-16.835-36.376-2.225-4.634-4.287-8.344-4.583-8.246-.295.099-1.913 3.234-3.595 6.968a2833 2833 0 0 1-7.528 16.504c-7.204 15.66-9.747 21.713-9.468 22.542.143.427 1.949 2.018 4.011 3.534s6.551 4.96 9.975 7.652c3.423 2.691 6.48 4.89 6.79 4.885.312-.005 3.003-1.809 5.98-4.008"
     style="fill:#d4aa00;fill-opacity:.878431;stroke:none;stroke-width:.659968;stroke-opacity:1"
     id="path3" />
</svg>
