<?xml version="1.0" encoding="UTF-8" standalone="no"?>
<svg
   data-name="Layer 1"
   viewBox="-5.0 -10.0 110.0 135.0"
   x="0px"
   y="0px"
   version="1.1"
   id="svg2"
   sodipodi:docname="the-exit.svg"
   inkscape:version="1.4.2 (ebf0e940, 2025-05-08)"
   xmlns:inkscape="http://www.inkscape.org/namespaces/inkscape"
   xmlns:sodipodi="http://sodipodi.sourceforge.net/DTD/sodipodi-0.dtd"
   xmlns="http://www.w3.org/2000/svg"
   xmlns:svg="http://www.w3.org/2000/svg">
  <defs
     id="defs2" />
  <sodipodi:namedview
     id="namedview2"
     pagecolor="#ffffff"
     bordercolor="#000000"
     borderopacity="0.25"
     inkscape:showpageshadow="2"
     inkscape:pageopacity="0.0"
     inkscape:pagecheckerboard="0"
     inkscape:deskcolor="#d1d1d1"
     inkscape:zoom="1.4613271"
     inkscape:cx="50.638902"
     inkscape:cy="99.224875"
     inkscape:window-width="1280"
     inkscape:window-height="747"
     inkscape:window-x="0"
     inkscape:window-y="25"
     inkscape:window-maximized="1"
     inkscape:current-layer="svg2" />
  <g
     id="g2"
     transform="translate(-7.4996113e-4,7.4995)"
     style="fill:#333333">
    <path
       d="m 84.746,62.389 v -3.461 c 1.213,0.334 1.584,0.733 1.584,1.686 0,0.771 -0.658,1.453 -1.584,1.774 z m -2.333,-6.366 v -3.458 c -0.923,0.321 -1.579,1.003 -1.579,1.773 0,0.952 0.37,1.351 1.579,1.685 z M 36.103,24.097 c 5.594,0 10.145,-4.551 10.145,-10.145 0,-5.594 -4.551,-10.139 -10.145,-10.139 -5.594,0 -10.139,4.548 -10.139,10.139 0,5.591 4.548,10.145 10.139,10.145 z m 61.643,66.804 c 0,2.915 -2.369,5.287 -5.281,5.287 H 75.031 c -1.662,0 -3.147,-0.774 -4.116,-1.979 -0.97,1.206 -2.456,1.979 -4.12,1.979 H 49.366 c -1.664,0 -3.15,-0.774 -4.12,-1.979 -0.969,1.206 -2.453,1.979 -4.116,1.979 H 23.703 c -2.915,0 -5.287,-2.372 -5.287,-5.287 0,-2.915 2.372,-5.281 5.287,-5.281 h 2.933 C 26.005,84.8 25.579,83.81 25.444,82.721 25.438,82.673 25.435,82.626 25.435,82.578 v -40.4 L 12.817,54.549 C 11.663,55.707 10.108,56.35 8.45,56.351 H 8.446 c -1.659,0 -3.216,-0.643 -4.383,-1.81 -2.412,-2.413 -2.413,-6.343 -10e-4,-8.762 1.097,-1.097 2.204,-2.197 3.316,-3.303 3.432,-3.412 6.98,-6.939 10.369,-10.502 5.647,-5.942 7.037,-6.201 10.986,-6.195 h 0.248 41.336 c 3.416,0 6.195,2.779 6.195,6.195 0,3.416 -2.779,6.2 -6.195,6.2 H 55.099 c -0.986,0.053 -2.007,0.035 -2.995,0.017 -2.303,-0.041 -4.685,-0.083 -5.595,0.864 -0.38,0.396 -0.54,1.023 -0.488,1.917 10e-4,0.023 0.002,0.045 0.002,0.068 v 9.601 l 10.825,6.629 c 1.827,1.093 2.459,2.41 2.312,4.843 v 11.75 c 0.055,1.351 -0.361,2.571 -1.169,3.513 h 4.624 c 0.147472,0.03649 4.017,0 4.017,0 1.712,0 3.236,0.819 4.203,2.084 0.239,-0.313 0.511,-0.599 0.813,-0.851 -1.252,-0.967 -2.061,-2.481 -2.061,-4.182 0,-2.915 2.369,-5.287 5.281,-5.287 h 0.991 c -3.777,-2.51 -6.272,-6.802 -6.272,-11.669 0,-7.717 6.278,-13.995 13.996,-13.995 7.718,0 14.001,6.278 14.001,13.995 0,4.866 -2.497,9.158 -6.275,11.669 h 0.993 c 2.912,0 5.281,2.372 5.281,5.287 0,1.625 -0.738,3.08 -1.896,4.05 1.252,0.968 2.061,2.484 2.061,4.186 0,1.664 -0.773,3.15 -1.977,4.12 1.204,0.969 1.977,2.453 1.977,4.116 z M 78.502,54.339 c 0,2.839 2.094,3.676 3.911,4.09 v 3.962 c -0.739,-0.256 -1.314,-0.745 -1.51,-1.345 -0.2,-0.612 -0.858,-0.947 -1.471,-0.747 -0.612,0.2 -0.947,0.858 -0.747,1.471 0.499,1.528 1.956,2.674 3.727,3.03 v 1.609 c 0,0.644 0.522,1.166 1.166,1.166 0.644,0 1.166,-0.522 1.166,-1.166 v -1.606 c 2.242,-0.447 3.917,-2.154 3.917,-4.186 0,-2.841 -2.098,-3.677 -3.917,-4.091 v -3.964 c 0.759,0.26 1.343,0.765 1.529,1.386 0.184,0.617 0.834,0.968 1.451,0.784 0.617,-0.184 0.968,-0.834 0.784,-1.451 -0.472,-1.582 -1.946,-2.765 -3.764,-3.126 v -1.607 c 0,-0.644 -0.522,-1.166 -1.166,-1.166 -0.644,0 -1.166,0.522 -1.166,1.166 v 1.607 c -2.239,0.448 -3.911,2.154 -3.911,4.186 z M 44.08,90.901 c 0,-1.626 -1.323,-2.949 -2.949,-2.949 H 23.703 c -1.629,0 -2.954,1.323 -2.954,2.949 0,1.626 1.325,2.954 2.954,2.954 h 17.428 c 1.626,0 2.949,-1.325 2.949,-2.954 z m 1.898,-4.05 c -1.253,-0.968 -2.063,-2.484 -2.063,-4.186 0,-2.876 2.308,-5.221 5.169,-5.284 -0.808,-0.932 -1.25,-2.141 -1.246,-3.494 v -7.385 c 0,-2.772 -1.149,-3.393 -3.924,-4.894 -0.331,-0.179 -0.678,-0.367 -1.039,-0.567 -2.505,-1.356 -4.367,-2.365 -5.584,-3.025 v 24.562 c 0,0.048 -0.003,0.096 -0.009,0.143 -0.135,1.089 -0.561,2.079 -1.192,2.899 h 5.041 c 1.662,0 3.147,0.773 4.116,1.977 0.219,-0.272 0.464,-0.522 0.731,-0.745 z m 0.27,-4.186 c 0,1.629 1.325,2.954 2.954,2.954 v 0.004 c 0.055,-0.002 0.11,-0.004 0.165,-0.004 H 66.63 c 1.629,0 2.954,-1.325 2.954,-2.954 0,-1.629 -1.325,-2.954 -2.954,-2.954 H 49.202 c -1.629,0 -2.954,1.325 -2.954,2.954 z m 23.502,8.236 c 0,-1.626 -1.325,-2.949 -2.954,-2.949 H 49.367 c -1.629,0 -2.954,1.323 -2.954,2.949 0,1.626 1.325,2.954 2.954,2.954 h 17.429 c 1.629,0 2.954,-1.325 2.954,-2.954 z m 1.977,-4.116 c -0.334,-0.269 -0.634,-0.577 -0.894,-0.917 -0.239,0.313 -0.512,0.599 -0.814,0.851 0.332,0.256 0.633,0.551 0.896,0.877 0.24,-0.299 0.513,-0.571 0.811,-0.811 z m 0.19,-12.356 c 0,1.626 1.323,2.949 2.949,2.949 v 0.004 c 0.055,-0.002 0.11,-0.004 0.165,-0.004 H 92.3 c 1.626,0 2.949,-1.323 2.949,-2.949 0,-1.626 -1.323,-2.954 -2.949,-2.954 H 74.866 c -1.626,0 -2.949,1.325 -2.949,2.954 z M 95.414,90.9 c 0,-1.626 -1.323,-2.949 -2.949,-2.949 H 75.031 c -1.626,0 -2.949,1.323 -2.949,2.949 0,1.626 1.323,2.954 2.949,2.954 h 17.434 c 1.626,0 2.949,-1.325 2.949,-2.954 z m 0,-8.236 c 0,-1.629 -1.323,-2.954 -2.949,-2.954 H 75.031 c -1.626,0 -2.949,1.325 -2.949,2.954 0,1.629 1.323,2.954 2.949,2.954 h 17.434 c 1.626,0 2.949,-1.325 2.949,-2.954 z"
       id="path1"
       sodipodi:nodetypes="ccsccccscssssscsscsscssssccsccssccccccsssccccsccccccsccsscssscsscsccccccccccssscscccsccssscccssssssscsccscccsccscccsccsssssssssssssccccccsccssssssssssssssssssss"
       style="fill:#333333" />
  </g>
</svg>
