<?xml version="1.0" encoding="UTF-8" standalone="no"?>
<svg
   version="1.1"
   x="0px"
   y="0px"
   viewBox="0 0 100 125"
   style="enable-background:new 0 0 100 100;"
   xml:space="preserve"
   id="svg24"
   sodipodi:docname="the-money.svg"
   inkscape:version="1.4.2 (ebf0e940, 2025-05-08)"
   xmlns:inkscape="http://www.inkscape.org/namespaces/inkscape"
   xmlns:sodipodi="http://sodipodi.sourceforge.net/DTD/sodipodi-0.dtd"
   xmlns="http://www.w3.org/2000/svg"
   xmlns:svg="http://www.w3.org/2000/svg"><defs
     id="defs24" /><sodipodi:namedview
     id="namedview24"
     pagecolor="#ffffff"
     bordercolor="#000000"
     borderopacity="0.25"
     inkscape:showpageshadow="2"
     inkscape:pageopacity="0.0"
     inkscape:pagecheckerboard="0"
     inkscape:deskcolor="#d1d1d1"
     inkscape:zoom="3.7460527"
     inkscape:cx="53.389532"
     inkscape:cy="74.478397"
     inkscape:window-width="1280"
     inkscape:window-height="747"
     inkscape:window-x="0"
     inkscape:window-y="25"
     inkscape:window-maximized="1"
     inkscape:current-layer="svg24" /><style
     type="text/css"
     id="style1">
	.st0{fill:none;stroke:#000000;stroke-width:2;stroke-linecap:round;stroke-linejoin:round;stroke-miterlimit:10;}
	.st1{fill:none;stroke:#000000;stroke-linecap:round;stroke-linejoin:round;stroke-miterlimit:10;}
	.st2{fill:none;stroke:#000000;stroke-width:2;stroke-miterlimit:10;}
</style><g
     id="g24"
     transform="translate(-0.6682639,13.291673)"
     style="fill:#333333"><path
       d="m 77.4,23.5 c 0.5,0 1.1,-0.1 1.6,-0.2 4,-0.9 6.5,-4.9 5.6,-8.9 -0.9,-4 -4.9,-6.5 -8.9,-5.6 -4,0.9 -6.5,4.9 -5.6,8.9 0.9,3.4 4,5.8 7.3,5.8 z M 76.2,10.8 c 0.4,-0.1 0.8,-0.1 1.2,-0.1 2.5,0 4.7,1.7 5.3,4.2 0.7,2.9 -1.2,5.8 -4.1,6.5 -2.9,0.7 -5.8,-1.2 -6.5,-4.1 -0.6,-2.9 1.2,-5.8 4.1,-6.5 z"
       id="path1"
       style="fill:#333333" /><path
       d="m 88.9,26.7 c -1.7,-1.1 -3.7,-1.4 -5.6,-0.9 -1.9,0.4 -3.6,1.6 -4.6,3.3 -1.1,1.7 -1.4,3.7 -0.9,5.6 0.8,3.4 3.8,5.8 7.2,5.8 0.5,0 1.1,-0.1 1.6,-0.2 4,-0.9 6.5,-4.9 5.6,-8.9 -0.4,-2 -1.6,-3.6 -3.3,-4.7 z m -2.7,11.6 c -2.9,0.7 -5.8,-1.2 -6.5,-4.1 -0.3,-1.4 -0.1,-2.9 0.7,-4.1 0.8,-1.2 2,-2.1 3.4,-2.4 0.4,-0.1 0.8,-0.1 1.2,-0.1 1,0 2,0.3 2.9,0.8 1.2,0.8 2.1,2 2.4,3.4 0.6,2.9 -1.2,5.8 -4.1,6.5 z"
       id="path2"
       style="fill:#333333" /><path
       d="m 17.3,89 c 0.5,0 1.1,-0.1 1.6,-0.2 4,-0.9 6.5,-4.9 5.6,-8.9 -0.4,-1.9 -1.6,-3.6 -3.3,-4.6 -1.7,-1.1 -3.7,-1.4 -5.6,-0.9 -4,0.9 -6.5,4.9 -5.6,8.9 0.9,3.4 4,5.7 7.3,5.7 z M 16.1,76.3 c 0.4,-0.1 0.8,-0.1 1.2,-0.1 1,0 2,0.3 2.9,0.8 1.2,0.8 2.1,2 2.4,3.4 0.7,2.9 -1.2,5.8 -4.1,6.5 -2.9,0.7 -5.8,-1.2 -6.5,-4.1 -0.6,-2.9 1.2,-5.8 4.1,-6.5 z"
       id="path3"
       style="fill:#333333" /><path
       d="m 57.4,32 c -0.8,-0.3 -1.7,-0.2 -2.5,0.2 -0.8,0.4 -1.4,1.1 -1.7,1.9 -0.3,0.8 -0.2,1.7 0.2,2.5 0.4,0.8 1.1,1.4 1.9,1.7 0.3,0.1 0.7,0.2 1.1,0.2 0.5,0 1,-0.1 1.4,-0.3 0.8,-0.4 1.4,-1.1 1.7,-1.9 0.3,-0.8 0.2,-1.7 -0.2,-2.5 -0.4,-0.9 -1.1,-1.5 -1.9,-1.8 z m 0.1,3.5 c -0.1,0.3 -0.3,0.6 -0.6,0.7 -0.3,0.2 -0.7,0.2 -1,0.1 -0.3,-0.1 -0.6,-0.3 -0.7,-0.6 0,0 0,0 0,0 -0.2,-0.3 -0.2,-0.7 -0.1,-1 0.1,-0.3 0.3,-0.6 0.6,-0.7 0.2,-0.1 0.4,-0.1 0.6,-0.1 0.1,0 0.3,0 0.4,0.1 0.3,0.1 0.6,0.3 0.7,0.6 0.2,0.2 0.2,0.6 0.1,0.9 z"
       id="path4"
       style="fill:#333333" /><path
       d="m 16.1,35.2 -1.9,1 c -0.5,0.2 -0.7,0.8 -0.5,1.3 0.2,0.4 0.5,0.6 0.9,0.6 0.1,0 0.3,0 0.4,-0.1 l 1.9,-1 c 0.5,-0.2 0.7,-0.8 0.5,-1.3 -0.2,-0.5 -0.8,-0.7 -1.3,-0.5 z"
       id="path5"
       style="fill:#333333" /><path
       d="m 21.3,32.7 -1.9,1 c -0.5,0.2 -0.7,0.8 -0.5,1.3 0.2,0.4 0.5,0.6 0.9,0.6 0.1,0 0.3,0 0.4,-0.1 l 1.9,-1 c 0.5,-0.2 0.7,-0.8 0.5,-1.3 -0.2,-0.5 -0.8,-0.7 -1.3,-0.5 z"
       id="path6"
       style="fill:#333333" /><path
       d="m 26.4,30.2 -1.9,1 C 24,31.4 23.8,32 24,32.5 c 0.2,0.4 0.5,0.6 0.9,0.6 0.1,0 0.3,0 0.4,-0.1 l 1.9,-1 c 0.5,-0.2 0.7,-0.8 0.5,-1.3 -0.2,-0.5 -0.8,-0.7 -1.3,-0.5 z"
       id="path7"
       style="fill:#333333" /><path
       d="m 31.5,27.7 -1.9,1 c -0.5,0.2 -0.7,0.8 -0.5,1.3 0.2,0.4 0.5,0.6 0.9,0.6 0.1,0 0.3,0 0.4,-0.1 l 1.9,-1 C 32.8,29.3 33,28.7 32.8,28.2 32.6,27.7 32,27.5 31.5,27.7 Z"
       id="path8"
       style="fill:#333333" /><path
       d="m 36.7,25.2 -1.9,1 c -0.5,0.2 -0.7,0.8 -0.5,1.3 0.2,0.4 0.5,0.6 0.9,0.6 0.1,0 0.3,0 0.4,-0.1 l 1.9,-1 C 38,26.8 38.2,26.2 38,25.7 37.8,25.2 37.1,24.9 36.7,25.2 Z"
       id="path9"
       style="fill:#333333" /><path
       d="m 43.1,23.1 c -0.2,-0.5 -0.8,-0.7 -1.3,-0.5 l -1.9,1 c -0.5,0.2 -0.7,0.8 -0.5,1.3 0.2,0.4 0.5,0.6 0.9,0.6 0.1,0 0.3,0 0.4,-0.1 l 1.9,-1 c 0.6,-0.2 0.8,-0.8 0.5,-1.3 z"
       id="path10"
       style="fill:#333333" /><path
       d="m 45.4,23 c 0.1,0 0.3,0 0.4,-0.1 l 1.9,-1 c 0.5,-0.2 0.7,-0.8 0.5,-1.3 -0.2,-0.5 -0.8,-0.7 -1.3,-0.5 l -1.9,1 c -0.5,0.2 -0.7,0.8 -0.5,1.3 0.2,0.4 0.5,0.6 0.9,0.6 z"
       id="path11"
       style="fill:#333333" /><path
       d="m 50.5,20.5 c 0.1,0 0.3,0 0.4,-0.1 l 1.9,-1 c 0.5,-0.2 0.7,-0.8 0.5,-1.3 -0.2,-0.5 -0.8,-0.7 -1.3,-0.5 l -1.9,1 c -0.5,0.2 -0.7,0.8 -0.5,1.3 0.2,0.4 0.6,0.6 0.9,0.6 z"
       id="path12"
       style="fill:#333333" /><path
       d="m 55.7,18 c 0.1,0 0.3,0 0.4,-0.1 l 1.9,-1 c 0.5,-0.2 0.7,-0.8 0.5,-1.3 -0.2,-0.5 -0.8,-0.7 -1.3,-0.5 l -1.9,1 c -0.5,0.2 -0.7,0.8 -0.5,1.3 0.2,0.4 0.5,0.6 0.9,0.6 z"
       id="path13"
       style="fill:#333333" /><path
       d="m 30.9,65.4 -1.9,1 c -0.5,0.2 -0.7,0.8 -0.5,1.3 0.2,0.4 0.5,0.6 0.9,0.6 0.1,0 0.3,0 0.4,-0.1 l 1.9,-1 C 32.2,67 32.4,66.4 32.2,65.9 32,65.4 31.4,65.2 30.9,65.4 Z"
       id="path14"
       style="fill:#333333" /><path
       d="m 36.1,62.9 -1.9,1 c -0.5,0.2 -0.7,0.8 -0.5,1.3 0.2,0.4 0.5,0.6 0.9,0.6 0.1,0 0.3,0 0.4,-0.1 l 1.9,-1 c 0.5,-0.2 0.7,-0.8 0.5,-1.3 -0.2,-0.5 -0.8,-0.7 -1.3,-0.5 z"
       id="path15"
       style="fill:#333333" /><path
       d="m 65.3,50.7 c 0.1,0 0.3,0 0.4,-0.1 l 1.9,-1 c 0.5,-0.2 0.7,-0.8 0.5,-1.3 -0.2,-0.5 -0.8,-0.7 -1.3,-0.5 l -1.9,1 c -0.5,0.2 -0.7,0.8 -0.5,1.3 0.2,0.4 0.6,0.6 0.9,0.6 z"
       id="path16"
       style="fill:#333333" /><path
       d="m 70.5,48.2 c 0.1,0 0.3,0 0.4,-0.1 l 1.9,-1 c 0.5,-0.2 0.7,-0.8 0.5,-1.3 -0.2,-0.5 -0.8,-0.7 -1.3,-0.5 l -1.9,1 c -0.5,0.2 -0.7,0.8 -0.5,1.3 0.1,0.4 0.5,0.6 0.9,0.6 z"
       id="path17"
       style="fill:#333333" /><path
       d="m 86.7,58.9 -17,-4.6 6.3,-3.2 c 1.2,-0.6 2,-1.5 2.4,-2.8 0.4,-1.2 0.3,-2.5 -0.2,-3.7 l -4.8,-9.8 0.4,-0.2 c 0.7,-0.3 1.2,-0.9 1.4,-1.6 0.2,-0.7 0.2,-1.5 -0.1,-2.1 l -4,-8.1 C 70.8,22.1 70.2,21.6 69.5,21.4 68.8,21.2 68,21.2 67.4,21.5 l -0.4,0.2 -4.4,-9 C 61.4,10.3 58.5,9.3 56.2,10.5 L 11.6,32.3 c -1.2,0.6 -2,1.5 -2.4,2.8 -0.4,1.2 -0.3,2.5 0.2,3.7 l 15.7,32 c 0.8,1.7 2.5,2.7 4.3,2.7 0.7,0 1.4,-0.2 2.1,-0.5 l 5.6,-2.8 -0.7,2.7 c -0.4,1.3 -0.2,2.7 0.5,3.9 0.7,1.2 1.8,2.1 3.1,2.4 l 38.4,10.4 c 0.4,0.1 0.9,0.2 1.4,0.2 0.9,0 1.8,-0.2 2.6,-0.7 1.2,-0.7 2.1,-1.8 2.4,-3.1 L 90.4,65.3 C 90.8,64 90.6,62.6 89.9,61.4 89.1,60.1 88,59.3 86.7,58.9 Z m 1.4,3.4 c 0.4,0.7 0.5,1.6 0.3,2.4 L 88.3,65 43.8,52.9 43.9,52.6 c 0.2,-0.8 0.8,-1.5 1.5,-1.9 0.5,-0.3 1,-0.4 1.6,-0.4 0.3,0 0.6,0 0.8,0.1 l 38.4,10.4 c 0.8,0.3 1.5,0.8 1.9,1.5 z M 43.3,54.9 87.8,67 86.8,70.5 42.3,58.4 Z M 68.5,23.3 c 0.1,0 0.2,0 0.3,0 0.2,0.1 0.4,0.2 0.5,0.4 l 4,8.1 c 0.1,0.2 0.1,0.4 0,0.6 -0.1,0.2 -0.2,0.4 -0.4,0.5 l -18.4,9 c 0,0 0,0 0,0 -0.2,0.1 -0.4,0.1 -0.6,0 -0.2,-0.1 -0.4,-0.2 -0.5,-0.4 l -4,-8.1 c -0.2,-0.4 0,-0.9 0.4,-1.1 L 66.9,24 c 0,0 0,0 0,0 0,0 0,0 0,0 l 1.3,-0.6 c 0.1,-0.1 0.2,-0.1 0.3,-0.1 z M 30.6,71.1 c -0.7,0.3 -1.4,0.4 -2.1,0.1 -0.7,-0.2 -1.3,-0.7 -1.6,-1.4 l -15.7,-32 c -0.3,-0.7 -0.4,-1.4 -0.1,-2.1 0.2,-0.7 0.7,-1.3 1.4,-1.6 L 57,12.3 c 1.4,-0.7 3.1,-0.1 3.8,1.3 l 4.4,9 -16.3,8 c -1.4,0.7 -2,2.4 -1.3,3.8 l 4,8.1 c 0.3,0.7 0.9,1.2 1.6,1.4 0.2,0.1 0.5,0.1 0.8,0.1 0.4,0 0.8,-0.1 1.2,-0.3 l 16.3,-8 4.8,9.8 c 0.3,0.7 0.4,1.4 0.1,2.1 -0.2,0.7 -0.7,1.3 -1.4,1.6 l -8.2,4.2 -4.5,-1.2 0.3,-0.1 c 0.5,-0.2 0.7,-0.8 0.5,-1.3 -0.2,-0.5 -0.8,-0.7 -1.3,-0.5 l -1.9,1 c -0.1,0.1 -0.2,0.1 -0.3,0.2 l -11.2,-3 c -1.3,-0.4 -2.7,-0.2 -3.9,0.5 -1.2,0.7 -2.1,1.8 -2.4,3.1 l -4.2,15.4 z m 52.2,14.4 c -0.2,0.8 -0.8,1.5 -1.5,1.9 -0.7,0.4 -1.6,0.5 -2.4,0.3 L 40.5,77.3 C 39.7,77.1 39,76.5 38.6,75.8 38.2,75.1 38.1,74.2 38.3,73.4 l 3.5,-13 44.5,12.1 z"
       id="path18"
       style="fill:#333333" /><path
       d="m 46.8,70.4 -2.1,-0.6 c -0.5,-0.1 -1.1,0.2 -1.2,0.7 -0.1,0.5 0.2,1.1 0.7,1.2 l 2.1,0.6 c 0.1,0 0.2,0 0.3,0 0.4,0 0.8,-0.3 1,-0.7 0,-0.5 -0.3,-1 -0.8,-1.2 z"
       id="path19"
       style="fill:#333333" /><path
       d="m 51.9,71.8 -2.1,-0.6 c -0.5,-0.1 -1.1,0.2 -1.2,0.7 -0.1,0.5 0.2,1.1 0.7,1.2 l 2.1,0.6 c 0.1,0 0.2,0 0.3,0 0.4,0 0.8,-0.3 1,-0.7 0,-0.5 -0.3,-1 -0.8,-1.2 z"
       id="path20"
       style="fill:#333333" /><path
       d="m 56.9,73.2 -2.1,-0.6 c -0.5,-0.1 -1.1,0.2 -1.2,0.7 -0.1,0.5 0.2,1.1 0.7,1.2 l 2.1,0.6 c 0.1,0 0.2,0 0.3,0 0.4,0 0.8,-0.3 1,-0.7 0.1,-0.5 -0.2,-1.1 -0.8,-1.2 z"
       id="path21"
       style="fill:#333333" /><path
       d="M 62,74.6 60,74 c -0.5,-0.1 -1.1,0.2 -1.2,0.7 -0.1,0.5 0.2,1.1 0.7,1.2 l 2.1,0.6 c 0.1,0 0.2,0 0.3,0 0.4,0 0.8,-0.3 1,-0.7 0,-0.5 -0.3,-1.1 -0.9,-1.2 z"
       id="path22"
       style="fill:#333333" /><path
       d="m 76.9,75.5 c -0.5,-0.1 -1,-0.2 -1.5,-0.1 -0.4,-0.3 -0.9,-0.5 -1.4,-0.7 -1,-0.3 -2.1,-0.1 -3,0.4 -0.9,0.5 -1.6,1.4 -1.9,2.4 -0.6,2.1 0.7,4.3 2.8,4.9 0.3,0.1 0.7,0.1 1.1,0.1 0.2,0 0.3,0 0.5,0 0.4,0.3 0.9,0.5 1.4,0.7 0.4,0.1 0.7,0.1 1,0.1 1.8,0 3.4,-1.2 3.9,-3 0.5,-2 -0.7,-4.2 -2.9,-4.8 z M 74,78.9 c 0.1,-0.5 0.4,-0.9 0.8,-1.1 0.2,0.4 0.3,0.9 0.1,1.4 -0.1,0.5 -0.4,0.9 -0.8,1.1 -0.2,-0.5 -0.3,-1 -0.1,-1.4 z m -2.9,-0.8 c 0.1,-0.5 0.5,-1 0.9,-1.2 0.3,-0.2 0.6,-0.3 1,-0.3 0,0 0,0 0.1,0 -0.5,0.5 -0.8,1.1 -1,1.7 -0.2,0.7 -0.2,1.4 0,2 -0.9,-0.4 -1.3,-1.3 -1,-2.2 z m 6.7,1.8 c -0.2,0.9 -1.1,1.5 -2,1.5 0.5,-0.5 0.8,-1.1 1,-1.7 0.2,-0.7 0.2,-1.4 0,-2 0.9,0.4 1.3,1.3 1,2.2 z"
       id="path23"
       style="fill:#333333" /></g></svg>
